<svg xmlns="http://www.w3.org/2000/svg" viewBox="0 0 1200 675">
  <!-- Thumbnail: Strong Legs or an Easier Road - zinc/amber brand style -->
  <defs>
    <linearGradient id="bg" x1="0" y1="0" x2="1" y2="1">
      <stop offset="0" stop-color="#18181B"/>
      <stop offset="1" stop-color="#26262C"/>
    </linearGradient>
  </defs>

  <rect width="1200" height="675" fill="url(#bg)"/>

  <!-- Subtle dot pattern -->
  <g fill="#D97706" opacity="0.07">
    <circle cx="60" cy="60" r="3"/><circle cx="160" cy="120" r="3"/><circle cx="80" cy="220" r="3"/>
    <circle cx="200" cy="40" r="3"/><circle cx="280" cy="180" r="3"/><circle cx="120" cy="340" r="3"/>
    <circle cx="1080" cy="80" r="3"/><circle cx="1140" cy="200" r="3"/><circle cx="1020" cy="160" r="3"/>
    <circle cx="1100" cy="320" r="3"/><circle cx="980" cy="60" r="3"/>
  </g>

  <!-- The easy road: flat, fading, grey -->
  <path d="M 80 530 C 300 525, 500 535, 720 530" fill="none" stroke="#3F3F46" stroke-width="7" stroke-linecap="round" stroke-dasharray="2 26" opacity="0.9"/>

  <!-- The hard road: rising mountain path, amber -->
  <path d="M 80 530 C 280 520, 420 500, 560 440 C 700 380, 800 300, 900 210 C 950 165, 990 130, 1040 100"
        fill="none" stroke="#D97706" stroke-width="8" stroke-linecap="round"/>
  <!-- Waypoint dots along the climb -->
  <circle cx="560" cy="440" r="9" fill="#F59E0B"/>
  <circle cx="900" cy="210" r="9" fill="#F59E0B"/>
  <!-- Summit flag -->
  <line x1="1040" y1="100" x2="1040" y2="48" stroke="#F4F4F5" stroke-width="5" stroke-linecap="round"/>
  <path d="M 1040 48 L 1092 62 L 1040 78 Z" fill="#D97706"/>

  <!-- Compass mark, small, top-left -->
  <g transform="translate(64,56) scale(0.62)">
    <circle cx="50" cy="50" r="46" fill="none" stroke="#F4F4F5" stroke-width="5"/>
    <circle cx="50" cy="50" r="38" fill="none" stroke="#D97706" stroke-width="2"/>
    <polygon points="50,50 50,10 44,54" fill="#D97706"/>
    <polygon points="50,50 50,10 56,54" fill="#F59E0B"/>
    <polygon points="50,50 50,88 44,54" fill="#F4F4F5" opacity="0.5"/>
    <polygon points="50,50 50,88 56,54" fill="#F4F4F5" opacity="0.3"/>
    <circle cx="50" cy="50" r="4" fill="#F4F4F5"/>
  </g>
  <text x="140" y="86" font-family="Georgia, serif" font-size="22" fill="#9D9DA6" letter-spacing="2">THE LEADERSHIP COMPASS</text>

  <!-- Title -->
  <text x="80" y="220" font-family="Verdana, Geneva, sans-serif" font-size="64" font-weight="bold" fill="#F4F4F5">Strong Legs</text>
  <text x="80" y="300" font-family="Verdana, Geneva, sans-serif" font-size="44" fill="#9D9DA6">or an</text>
  <text x="218" y="300" font-family="Verdana, Geneva, sans-serif" font-size="64" font-weight="bold" fill="#D97706">Easier Road</text>

  <text x="80" y="370" font-family="Verdana, Geneva, sans-serif" font-size="26" fill="#C5C5CC">What HR should really build</text>

  <!-- Eyebrow tag -->
  <rect x="80" y="118" width="148" height="36" rx="18" fill="#D97706" opacity="0.16"/>
  <text x="154" y="142" font-family="Verdana, Geneva, sans-serif" font-size="17" font-weight="bold" fill="#F59E0B" text-anchor="middle" letter-spacing="2">LEADERSHIP</text>
</svg>
